<?xml version="1.0" encoding="utf-8"?>
<!-- Generator: Adobe Illustrator 25.4.1, SVG Export Plug-In . SVG Version: 6.00 Build 0)  -->
<svg version="1.1" xmlns="http://www.w3.org/2000/svg" xmlns:xlink="http://www.w3.org/1999/xlink" x="0px" y="0px"
	 viewBox="0 0 750 500" style="enable-background:new 0 0 750 500;" xml:space="preserve">
<style type="text/css">
	.st0{fill:#EBFAF9;}
	.st1{display:none;}
	.st2{display:inline;fill:#D76C61;}
	.st3{display:inline;}
	.st4{fill:#D76C61;}
	.st5{fill:#CC5A56;}
	.st6{fill:#FDD16A;}
	.st7{fill:#4A82AC;}
	.st8{fill:#5F9EC2;}
	.st9{fill:#482851;}
	.st10{opacity:0.749;fill:#993C43;enable-background:new    ;}
	.st11{fill:#6E2938;}
	.st12{fill:#754673;}
	.st13{fill:#242940;}
	.st14{fill:none;stroke:#6E2938;stroke-width:2;stroke-linecap:round;stroke-miterlimit:10;}
	.st15{fill:#F9A789;}
	.st16{fill:#ED8472;}
	.st17{fill:#88C361;}
	.st18{opacity:0.2588;}
	.st19{opacity:0.7608;fill:#88C361;enable-background:new    ;}
	.st20{opacity:0.749;fill:#D9675F;enable-background:new    ;}
	.st21{fill:#B84954;}
	.st22{display:inline;fill:#F9A789;}
	.st23{fill:#7B3349;}
	.st24{fill:#9E6570;}
	.st25{fill:#A85162;}
	.st26{fill:#DF6E64;}
	.st27{fill:none;stroke:#DF6E64;stroke-width:2;stroke-linecap:round;stroke-miterlimit:10;}
	.st28{fill:#FFFFFF;}
	.st29{display:inline;fill:#291F3D;}
	.st30{fill:#AF3E58;}
	.st31{fill:#6D7399;}
	.st32{opacity:0.4;fill:#939CB8;enable-background:new    ;}
	.st33{fill:#939CB8;}
	.st34{fill:#3A2B4F;}
	.st35{fill:#503761;}
	.st36{fill:#CED4DB;}
	.st37{fill:#211A36;}
	.st38{fill:#2C2142;}
	.st39{fill:none;stroke:#FFFFFF;stroke-linecap:round;stroke-miterlimit:10;}
	.st40{fill:#D46F35;}
	.st41{opacity:0.702;fill:#F7AD5E;enable-background:new    ;}
	.st42{display:inline;fill:#DE6523;}
	.st43{fill:#FFC4A6;}
	.st44{fill:#ED987E;}
	.st45{fill:#852A45;}
	.st46{opacity:0.749;fill:#ED987E;enable-background:new    ;}
	.st47{fill:#C96B63;}
	.st48{fill:#ED8B2F;}
	.st49{fill:none;stroke:#C96B63;stroke-width:2;stroke-linecap:round;stroke-miterlimit:10;}
	.st50{fill:#F2A388;}
	.st51{fill:#FAA243;}
	.st52{fill:#17192E;}
	.st53{fill:#F18D77;}
	.st54{opacity:0.5686;fill:#F5AD5B;enable-background:new    ;}
	.st55{fill:#F5AD5B;}
	.st56{opacity:0.749;}
	.st57{fill:none;stroke:#D16F45;stroke-linecap:round;stroke-miterlimit:10;}
	.st58{opacity:0.749;fill:#ED8472;enable-background:new    ;}
	.st59{fill:none;stroke:#DF6D64;stroke-width:2;stroke-linecap:round;stroke-miterlimit:10;}
	.st60{fill:#3C4A66;}
</style>
<g id="BACKGROUND">
	<rect class="st0" width="750" height="500"/>
</g>
<g id="OBJECTS">
	<g>
		<g class="st1">
			<polygon class="st2" points="390.8,-261.4 390.8,-261.3 387.4,-261.4 			"/>
			<polygon class="st2" points="390.8,-261.4 387.4,-261.3 387.4,-261.4 			"/>
			<g class="st3">
				<path class="st4" d="M580.8-42.8l-108.9,0.4l-7.4,0L392.4-42l-1.6,0l-1.6,0l-69.7-0.3l-3.4,0l-115.3-0.5l13.5-87.1
					c5.4-35,35.3-63.4,75.1-71.5l31.8-6.5l5.5-1.1l10.6-2.2l0.3-1.6l2.7-16.7l4.5-28.5l42.5-1l3.5-0.1l3.5,0.1l42.5,1l6.8,42.6
					l0.6,4.2l0.9,0.2l8.5,1.7l7.7,1.6l30.8,6.3c39.8,8.1,69.7,36.6,75.1,71.5L580.8-42.8z"/>
				<path class="st5" d="M443.6-215.3c-50.6,6-86.4-6.3-103.2-14.2l4.5-28.5l42.5-1l3.5-0.1l3.5,0.1l42.5,1L443.6-215.3z"/>
				<path class="st6" d="M321.3-207.8l-5.1,165.5l3.4,0l69.7,0.3l1.6,0l1.6,0l72.2-0.3l7.4,0l-10.5-165.3l-7.7-1.6l-1.6,2.2
					c-1.7,2.4-3.7,4.7-5.7,6.8c-28,29.2-80,30.2-109.6,2.8c-3-2.7-5.7-5.7-8.2-9.1l-1.8-2.5"/>
				<path class="st7" d="M580.8-42.8l-66,0.3l-43,0.2l-7.4,0l-19.4-168.6l8.5,1.7l7.7,1.6l30.8,6.3c18.6,3.8,35.1,12.1,47.9,23.3
					c14.5,12.8,24.4,29.6,27.2,48.2L580.8-42.8z"/>
				<path class="st7" d="M337.4-211.1L319.6-42.3l-3.4,0l-51.7-0.2l-63.6-0.2l13.5-87.1c2.8-18.1,12.1-34.4,26.1-47.1
					c13-11.8,29.9-20.5,49.1-24.4l31.8-6.5l5.5-1.1L337.4-211.1z"/>
				<g>
					<path class="st8" d="M264.5-123.3v80.8l-63.6-0.2l13.5-87.1c2.8-18.1,12.1-34.4,26.1-47.1C255.3-162.8,264.5-144,264.5-123.3z"
						/>
					<path class="st8" d="M580.8-42.8l-66,0.3v-80.8c0-21.2,9.6-40.5,25.2-54.7c14.5,12.8,24.4,29.6,27.2,48.2L580.8-42.8z"/>
				</g>
			</g>
			<g class="st3">
				<path class="st9" d="M507.7-407.9c6.9,20.1,1.5,42.1-4.3,62.6c-5.9,20.4-12.2,41.9-7.1,62.6c-4.4-0.2-8.7-1.7-12.2-4.2
					c-2.6,16-11.9,30.9-25.1,40.4c1-5.9-0.7-12.1-4.4-16.7c-22.5,16.7-42.5,25.4-62.6,25.5c-20.1,0.1-40.2-8.4-54.1-22.8
					c-5.6,3.9-9.1,10.5-9.2,17.3c-13.1-5.9-22.7-19-24.2-33.2c-7.2,4.7-16.7,5.5-24.5,2.1c12.1-3.6,17.7-18,16.2-30.4
					c-1.5-12.4-8.1-23.4-13.3-34.8c-5.1-11.4-8.9-24.5-4.4-36.1c-2.2-3.7-3.8-7.6-4.9-11.5c0,0,0,0,0,0c-3.3-12.1-1.3-24.4,4.9-34.4
					c-5.9-2.2-11-2.8-16.1-3.4c6.3-19.2,21-35.6,39.4-44.2c-7.3-4.9-10.5-13-8.6-20.1c19.8,1,39.3-4.4,58.5-9.3
					c19.2-4.9,39-9.6,58.6-7.1c13.3,1.7,26.6,7.3,37.1,16.8c5,4.5,9.4,9.9,12.7,16.2c9.6-4.6,21.4,0.5,28.7,8.2
					c7.3,7.7,11.5,17.8,17.3,26.6c5.8,8.9,14.4,17.1,25,17.8C524.9-413.7,516.6-409.3,507.7-407.9z"/>
				<g>
					<g>
						<path class="st5" d="M483.2-357.1c16.9-5.5,34.2,1,38.5,14.4c4.3,13.4-5.9,28.8-22.8,34.2c-16.9,5.5-34.2-1-38.5-14.4
							C456-336.4,466.2-351.7,483.2-357.1z"/>
						
							<ellipse transform="matrix(0.975 -0.2224 0.2224 0.975 85.8153 101.7225)" class="st10" cx="494.6" cy="-330.2" rx="20" ry="15.5"/>
						<path class="st11" d="M509.2-342.1c-4.8-3.9-11-5.9-17.1-5.6c-6.1,0.3-12.1,2.9-16.5,7.2c0.2,1.6,0.5,3.2,0.7,4.8
							c4.2-4.8,10-8,16.1-8.9C498.6-345.6,505-344.3,509.2-342.1z"/>
					</g>
					<g>
						
							<ellipse transform="matrix(0.3067 -0.9518 0.9518 0.3067 515.9656 42.6995)" class="st5" cx="287.3" cy="-332.8" rx="25.6" ry="32.2"/>
						
							<ellipse transform="matrix(0.2224 -0.975 0.975 0.2224 542.6264 19.854)" class="st10" cx="283.8" cy="-330.2" rx="15.5" ry="20"/>
						<path class="st11" d="M269.2-342.1c4.8-3.9,11-5.9,17.1-5.6c6.1,0.3,12.1,2.9,16.5,7.2c-0.2,1.6-0.5,3.2-0.7,4.8
							c-4.2-4.8-10-8-16.1-8.9C279.8-345.6,273.3-344.3,269.2-342.1z"/>
					</g>
				</g>
				<g>
					<path class="st4" d="M490.3-365.2c0,66.3-45.3,132.9-101.2,132.9c-8.1,0-15.9-1.4-23.5-4c-44.6-15.3-77.7-72.2-77.7-128.9v-0.4
						c0.2-66.1,45.4-106.9,101.2-106.9C445-472.5,490.3-431.5,490.3-365.2z"/>
					<path class="st5" d="M487.2-378.3c-5.8-0.9-11.3-3.7-15.5-7.9c0.7,4,1.4,7.9,2,11.9c-14.7-7.6-26.3-21.1-31.5-36.8
						c-14.3,12.3-34,17.9-52.6,14.9c1.2-2.8,2.5-5.6,3.4-8.7c-12.1,6.9-23.5,15.1-33.9,24.4c-2.8-6.4-3.9-13.5-3.3-20.3
						c-17.9,7-35,16.2-50.7,27.2c-0.3-3.3-0.6-6.5-0.9-9.8c-7.4,5.2-13,12.9-15.6,21.5c-0.7-18.3-0.6-39,12.4-52
						c5.3-5.2,12.1-8.6,18.9-11.6c33.5-14.9,69.4-24.2,105.8-27.7c12.1-1.2,20.6,2.6,31.6,7.8C468.2-440.3,491.7-401,487.2-378.3z"
						/>
				</g>
				<g>
					<path class="st9" d="M290.5-334.2c-3.3-26.2,3.5-50.1,19.5-70.9c-2,5.5-2.8,11.4-2.3,17.2c20.7-10.3,41.4-20.7,62.1-31
						c-6.3,6-9,15.5-6.8,23.9c17.4-8.5,34.7-17,52.1-25.5c-4.4,5.8-9.6,10.9-15.5,15.3c17,1.6,34.6-6.9,44.3-23.1
						c2.6,15.5,10.9,30,23,40.1c-0.2-5.8,0.7-11.6,1.5-19.1c1.9,11.5,8.2,22.2,16.2,29.4c1.1,15.3,2.2,30.7,0.7,45
						C548.1-508,249-550.8,290.5-334.2z"/>
					<path class="st12" d="M447.3-489.1c-8.8-4.6-19-6.8-28.9-7c-16.4-0.4-32.4,4-48.2,8.2c-15.8,4.2-31.9,8.3-48.2,7.7
						c7.2,4.3,15.3,7,23.6,7.8c-13.4,5.5-26.8,11-40.2,16.5c10.1-3.3,21.6-2,30.8,3.4c-17.9,0.3-35.6,8.3-47.5,21.7
						c4.6-1.6,9.9-1.3,14.3,0.9c-15.5,8.9-26.4,25.2-29.4,42.8c-3.3-12.1-1.3-24.4,4.9-34.4c-5.9-2.2-11-2.8-16.1-3.4
						c6.3-19.2,21-35.6,39.4-44.2c-7.3-4.9-10.5-13-8.6-20.1c19.8,1,39.3-4.4,58.5-9.3c19.2-4.9,39-9.6,58.6-7.1
						C423.5-504.2,436.8-498.6,447.3-489.1z"/>
				</g>
				<g>
					<g>
						<path class="st9" d="M363.9-365.7c-6-6.5-15.8-10.4-26.5-9.6c-10.7,0.7-19.8,5.9-24.8,13.1c0.3-13.1,10.6-24.1,24-25
							C350-388.1,361.8-378.7,363.9-365.7z"/>
						<path class="st9" d="M414.4-365.7c6-6.5,15.8-10.4,26.5-9.6c10.7,0.7,19.8,5.9,24.8,13.1c-0.3-13.1-10.6-24.1-24-25
							C428.3-388.1,416.6-378.7,414.4-365.7z"/>
					</g>
					<g>
						<circle class="st13" cx="348.1" cy="-342.4" r="6.3"/>
						<circle class="st13" cx="429.2" cy="-342.4" r="6.3"/>
					</g>
					<g>
						<path class="st14" d="M358.6-293.6c19.6,11.2,45.4,10.8,64.7-1.1"/>
						<path class="st5" d="M382.3-274c5.8,1.4,11.8,1.8,17.8,1.3c-1.8,3.2-5.5,5.4-9.2,5.3C387.2-267.5,383.6-269.7,382.3-274z"/>
						<path class="st14" d="M384.6-347.7c2.4,7.6,2.3,15.9-1.1,23.4c1.4,5,2.9,10.1,4.3,15.1"/>
					</g>
				</g>
			</g>
		</g>
		<g class="st1">
			<g class="st3">
				<g>
					<path class="st15" d="M1100.6-42.6c-119,0.8-260.9,0.8-380,0c17.4-111.1,7.1-149,136.6-168.3c0,0,0-0.1,0-0.1
						c1.8-11.2,5.6-35.4,7.4-46.7c24.7-1.1,67.3-1.1,91.9,0l6.8,42.6l0.5,2.9l0.2,1.3C1093.9-191.3,1082.9-153.7,1100.6-42.6z"/>
					<path class="st16" d="M963.3-215.1c-50.6,6-86.4-6.3-103.2-14.2l4.5-28.5l42.5-1l3.5-0.1l3.5,0.1l42.5,1L963.3-215.1z"/>
				</g>
				<g>
					<path class="st17" d="M1100.6-42.6c-25.9,0.2-52.8,0.3-80.4,0.4c-99.3,0.3-206.5,0.2-299.6-0.4c17.4-111.1,7.1-149,136.6-168.3
						c0,0,0-0.1,0-0.1l53.6,45.2l53-46.4l0.2,1.3c38,5.7,64,13,82.1,23.2C1089.9-163,1088.1-121.2,1100.6-42.6z"/>
					<g class="st18">
						<path class="st17" d="M1100.6-42.6c-25.9,0.2-52.8,0.3-80.4,0.4v-66.9c0-29.4,9.6-56.6,25.9-78.6
							C1089.9-163,1088.1-121.2,1100.6-42.6z"/>
						<path class="st17" d="M720.5-42.6c25.9,0.2,52.8,0.3,80.4,0.4v-66.9c0-29.4-9.6-56.6-25.9-78.6
							C731.2-163,733-121.2,720.5-42.6z"/>
					</g>
					<g>
						<g>
							<polygon class="st19" points="893.8,-180.6 911.2,-166 911.7,-100.2 893.4,-100.1 							"/>
							<g>
								<circle class="st17" cx="902" cy="-149.1" r="5.3"/>
								<circle class="st17" cx="902" cy="-120.2" r="5.3"/>
							</g>
						</g>
						<g>
							<path class="st17" d="M910.8-166.4l-52.4-50.5l-4.1-0.5c-10-1.1-19.9,2.6-26.7,10l0,0l6.7,41.6l14.4-8.4
								c7.4-4.4,16.4-5.5,24.7-3.1L910.8-166.4z"/>
							<path class="st17" d="M910.8-166.4l52.4-50.5l4.1-0.5c10-1.1,19.9,2.6,26.7,10l0,0l-6.7,41.6l-6.4-3.8
								c-12.5-7.3-27.5-9.2-41.5-5.2L910.8-166.4z"/>
						</g>
						<path class="st17" d="M947-92.2v-5.4c0-1.4,1.1-2.6,2.6-2.6h58c1.4,0,2.6,1.1,2.6,2.6v5.4c0,1.4-1.1,2.6-2.6,2.6h-58
							C948.1-89.6,947-90.8,947-92.2z"/>
					</g>
				</g>
			</g>
			<g>
				<g class="st3">
					<g>
						<path class="st16" d="M1002.9-356.9c16.9-5.5,34.2,1,38.5,14.4c4.3,13.4-5.9,28.8-22.8,34.2c-16.9,5.5-34.2-1-38.5-14.4
							C975.7-336.1,986-351.4,1002.9-356.9z"/>
						<path class="st20" d="M1010.9-345.1c10.7-2.5,21,2.3,22.9,10.7c1.9,8.4-5.3,17.1-16,19.6c-10.7,2.5-21-2.3-22.9-10.7
							C993-333.9,1000.2-342.7,1010.9-345.1z"/>
						<path class="st21" d="M1028.9-341.9c-4.8-3.9-11-5.9-17.1-5.6c-6.1,0.3-12.1,2.9-16.5,7.2c0.2,1.6,0.5,3.2,0.7,4.8
							c4.2-4.8,10-8,16.1-8.9C1018.3-345.3,1024.7-344,1028.9-341.9z"/>
					</g>
					<g>
						
							<ellipse transform="matrix(0.3067 -0.9518 0.9518 0.3067 876.0648 537.51)" class="st16" cx="807" cy="-332.6" rx="25.6" ry="32.2"/>
						<path class="st20" d="M784-334.5c1.9-8.4,12.2-13.1,22.9-10.7s17.9,11.2,16,19.6c-1.9,8.4-12.2,13.2-22.9,10.7
							C789.3-317.4,782.1-326.1,784-334.5z"/>
						<path class="st21" d="M788.9-341.9c4.8-3.9,11-5.9,17.1-5.6c6.1,0.3,12.1,2.9,16.5,7.2c-0.2,1.6-0.5,3.2-0.7,4.8
							c-4.2-4.8-10-8-16.1-8.9C799.5-345.3,793.1-344,788.9-341.9z"/>
					</g>
				</g>
				<path class="st22" d="M1010.1-365c0,66.3-45.3,132.9-101.2,132.9c-8.1,0-15.9-1.4-23.5-4c-44.6-15.3-77.7-72.2-77.7-128.9v-0.4
					c0.2-66.1,45.4-106.9,101.2-106.9C964.8-472.3,1010.1-431.3,1010.1-365z"/>
				<g class="st3">
					<path class="st23" d="M1035.4-451.6c-6.8,1.2-15.6,5.4-19,7.6c8.2,2.7,16.3,13.8,18.3,28.1c-5.9-2.6-12-0.5-15.8,0.8
						c-0.2,0-0.3,0.1-0.5,0.2c0.5,23.2-3.6,60.1-11.6,82.4c0-15.7-4.1-28.8-9.1-42.5c-4.9-13.7-8.5-20.8-10-40.5c0,0,0-0.1,0-0.1
						c-55.4,0.1-102.9-1.5-155.3,2.6c0,0.1,0,0.2,0,0.3c-0.9,20.2-5.8,24.9-11.2,36.6c-5.4,11.8-9.8,27.5-9.8,45.8
						c-8.9-20.5-10-82.8-10-82.8s-10.4-10.3-22.9-9.5c3.7-8.1,15.7-17.2,26.6-15c-1.1-8.9-11.1-20.5-21.6-25.1
						c17.3-4.2,26.3,1.4,33,11.1c2.1-8.4,5.7-16.1,10.6-22.9c34.2-47.9,129.8-54.9,190.1-7.9c-8.9,0.9-15.2,4.7-20.4,10
						c13.3-1.3,26.7,1.7,39.1,20.9C1035.8-451.7,1035.6-451.6,1035.4-451.6z"/>
					<path class="st24" d="M1018.4-415c0.5,23.2-3.6,60.1-11.6,82.4c0-15.7-4.1-28.8-9.1-42.5c-4.9-13.7-8.5-20.8-10-40.5l0.2-0.4
						l30.9,0.8C1018.7-415.1,1018.5-415.1,1018.4-415z"/>
					<path class="st24" d="M832.4-412.8c-0.9,20.2-5.8,24.9-11.2,36.6c-5.4,11.8-9.8,27.5-9.8,45.8c-8.9-20.5-12.1-54.8-10-82.8
						L832.4-412.8z"/>
					<path class="st25" d="M1035.9-451.7c-0.2,0-0.4,0.1-0.5,0.1c-20.6-15-48.2-20.7-72.9-13.8c6.8-9.5,17.4-16.2,29-18.3
						c-24.2-8-49.4-10.6-74.2-8.4c10.4-5.4,22.2-7.9,33.9-7.2c-41.3-13.4-89.9-3.5-124.1,24.6c34.2-47.9,129.8-54.9,190.1-7.9
						c-8.9,0.9-15.2,4.7-20.4,10C1010.1-473.9,1023.5-470.9,1035.9-451.7z"/>
				</g>
				<g class="st3">
					<g>
						<path class="st23" d="M883.7-365.5c-6-6.5-15.8-10.4-26.5-9.6c-10.7,0.7-19.8,5.9-24.8,13.1c0.3-13.1,10.6-24.1,24-25
							C869.8-387.9,881.5-378.5,883.7-365.5z"/>
						<path class="st23" d="M934.1-365.5c6-6.5,15.8-10.4,26.5-9.6c10.7,0.7,19.8,5.9,24.8,13.1c-0.3-13.1-10.6-24.1-24-25
							C948-387.9,936.3-378.5,934.1-365.5z"/>
					</g>
					<g>
						<circle class="st13" cx="867.8" cy="-342.2" r="6.3"/>
						<circle class="st13" cx="949" cy="-342.2" r="6.3"/>
					</g>
					<path class="st26" d="M901.7-268.5c5.8,1.4,11.8,1.8,17.8,1.3c-1.8,3.2-5.5,5.4-9.2,5.3C906.6-262,903-264.3,901.7-268.5z"/>
					<path class="st27" d="M903.1-344.8c2.4,7.6,2.3,15.9-1.1,23.4c1.4,5,2.9,10.1,4.3,15.1"/>
					<path class="st28" d="M877.2-293.7c22.7,4.3,46.4,3.2,69.3-3.1c1.4,3.9-0.5,8.3-3.6,11.1s-7.2,4-11.2,4.9
						c-11.6,2.8-23.7,3.5-35.6,2c-4.9-0.6-9.9-1.6-14-4.3C877.9-285.8,874.8-290.5,877.2-293.7z"/>
				</g>
			</g>
		</g>
		<g class="st1">
			<polygon class="st29" points="1338.2,223.2 1527.9,219.4 1549.3,373.4 1324.9,362.7 			"/>
			<g class="st3">
				<g>
					<path class="st4" d="M1625.4,499c-50.7,0.3-105.5,0.5-161,0.5c-7.5,0-15.1,0-22.6,0h-11c-8.9,0-17.9,0-26.8,0
						c-54.7,0-108.7-0.2-158.7-0.5c15.5-98.9,18.7-139.9,110.8-161.3c8.6-2,17.9-3.8,28.1-5.5c3.2-0.5,6.5-1.1,9.9-1.5
						c0.3-2,0.7-4.5,1.2-7.2c0.6-3.8,1.3-8.1,2-12.5c1.6-10,3.2-20.6,4.3-27.1c24.7-1.1,47.6-1.1,72.3,0l6,37.6l0.5,3.2l0.9,6
						c6.4,1,12.5,2,18.3,3c7.3,1.3,14,2.8,20.4,4.3C1610.8,359.5,1609.8,400.3,1625.4,499z"/>
					<path class="st5" d="M1479.8,321.4c-41.9,8.2-69-2.4-82.5-10.5c1.6-10,3.2-20.6,4.3-27.1c24.7-1.1,47.6-1.1,72.3,0
						L1479.8,321.4z"/>
				</g>
				<g>
					<path class="st30" d="M1488.5,340.9l-24,158.7c-8.1,0-16.2,0-24.2,0h-7.1c-9.7,0-19.4,0-29,0L1387,340.6
						c3.5,4.5,8.9,14.6,14.8,26.8c14.4,29.6,56.6,29.8,71.4,0.3c6-12,11.4-21.9,15-26.4L1488.5,340.9z"/>
					<g>
						<path class="st31" d="M1433.1,499.5c-42.2,0-84.4-0.1-125-0.2c-21.4-0.1-42.4-0.2-62.7-0.3c10.2-65.3,15.1-105.4,43.8-131.2
							c18.8-16.9,47.7-27.7,95.1-35.6L1433.1,499.5z"/>
						<path class="st31" d="M1625.4,499c-58.1,0.4-121.5,0.6-185.2,0.6l59.4-165.9C1611,354.1,1608.7,393.4,1625.4,499z"/>
					</g>
					<path class="st32" d="M1562.7,433.4v65.9c21.4-0.1,42.4-0.2,62.7-0.3c-10.2-65.3-13.5-106.4-42.2-132.2
						C1571.2,385.7,1562.7,409.3,1562.7,433.4z"/>
					<path class="st33" d="M1395.3,323.4l39.6,176.1h-4l-70.8-112.1l26.2-17.9l-36-5.7l1.6-14c0.5-4.4,2-8.5,4.3-12.1
						c3.7-5.9,9.5-10.4,16.5-12.5l21.7-6.3L1395.3,323.4z"/>
					<path class="st33" d="M1489.7,369.6l26.2,17.9l-74,112.1h-4.1l42.5-174.8l1.4-5.7l21.6,6.3c7.1,2.1,13,6.7,16.6,12.7
						c2.2,3.5,3.6,7.6,4.1,11.8l1.6,14L1489.7,369.6z"/>
					<path class="st32" d="M1308.2,433.4v65.9c-21.4-0.1-42.4-0.2-62.7-0.3c10.2-65.3,15.1-105.4,43.8-131.2
						C1301.2,386.8,1308.2,409.3,1308.2,433.4z"/>
				</g>
			</g>
			<path class="st2" d="M1535,176.6c0,66.3-45.3,132.9-101.2,132.9c-8.1,0-15.9-1.4-23.5-4c-44.6-15.3-77.7-72.2-77.7-128.9v-0.4
				c0.2-66.1,45.4-106.9,101.2-106.9C1489.6,69.3,1535,110.3,1535,176.6z"/>
			<g class="st3">
				<g>
					<path class="st34" d="M1450.6,169.7c6.1-8.3,15.6-12.9,25.1-12s18.7,7.2,24.3,16.6C1486.6,167.8,1471.9,165.4,1450.6,169.7z"/>
					<path class="st34" d="M1416,169.7c-6.1-8.3-15.6-12.9-25.1-12c-9.5,0.9-18.7,7.2-24.3,16.6C1380,167.8,1394.7,165.4,1416,169.7
						z"/>
				</g>
				<g>
					<circle class="st13" cx="1473.9" cy="201.7" r="6.3"/>
					<circle class="st13" cx="1392.8" cy="201.7" r="6.3"/>
				</g>
				<g>
					<path class="st14" d="M1437.8,195.4c-2.2,7.7-1.8,16,1.8,23.4c-1.3,5.1-2.6,10.2-3.8,15.3"/>
					<g>
						<path class="st5" d="M1448.3,278c-5.7,1.7-11.8,2.3-17.7,2c1.9,3.2,5.7,5.1,9.4,4.9C1443.7,284.6,1447.2,282.2,1448.3,278z"/>
						<path class="st28" d="M1407,243.4c19.1,6.4,44.5,6.1,59.3-0.7c4.3,12.3-0.5,24.8-26.8,25.9
							C1405.9,269.9,1401.7,253.1,1407,243.4z"/>
					</g>
				</g>
			</g>
			<g class="st3">
				<path class="st34" d="M1585.2,368.3c-36.8,19.3-57.6-9-63.7-101.3c-8.4-127.8-32-163-59.8-173.6c-19.6-7.5-34.7,1.9-34.7,1.9
					l0-0.1c-28.1-10.4-56,10.5-67.6,64.6c-9.1,42.5-6.6,154.8-18.2,191.7c-11.6,36.9-48.2,13-48.2,13c31.7-20,14-101.4,26.3-189.2
					c11.1-79.3,36.8-107.4,56.1-119c4.8-2.9,9.2-4.8,12.9-6.2c18.3-6.9,34,7,34,7l0.1,0.7c58.9-38.4,105,18.9,115.4,67.1
					c10.4,48,15.9,109.7,20.5,156.2c1.5,14.9,2.9,28.2,4.3,39.1C1567.3,355.3,1585.2,368.3,1585.2,368.3z"/>
				<path class="st35" d="M1558.4,281.1c-12.1-54.6-10.8-146.3-49.4-197.1c-35.7-47.1-86.9-17.6-86.9-17.6
					c-17.7-13.1-35.8-12.3-46.6-10.1c4.8-2.9,9.2-4.8,12.9-6.2c18.3-6.9,34,7,34,7l0.1,0.7c58.9-38.4,105,18.9,115.4,67.1
					C1548.3,172.9,1553.8,234.6,1558.4,281.1z"/>
			</g>
		</g>
		<g>
			<g>
				<g>
					<path class="st15" d="M578.7,499c-119,0.8-260.9,0.8-380,0c14.2-90.2,10-132.1,77.2-155.1c15.6-5.3,35-9.6,59.3-13.2
						c0,0,0-0.1,0-0.1c1.8-11.2,5.6-35.4,7.4-46.7c24.7-1.1,67.3-1.1,91.9,0l6.8,42.6l0.5,2.9l0.2,1.3c20.9,3.2,38.1,6.8,52.5,11.1
						C569.3,364.2,563.9,405.7,578.7,499z"/>
					<path class="st16" d="M441.5,326.5c-50.6,6-86.4-6.3-103.2-14.2l4.5-28.5l42.5-1l3.5-0.1l3.5,0.1l42.5,1L441.5,326.5z"/>
				</g>
				<polyline class="st36" points="335.4,324 387.8,364.9 443.6,324.8 443.8,362.5 388.3,398.4 326.7,340 				"/>
				<g>
					<path class="st37" d="M578.7,499c-24.7,0.2-50.4,0.3-76.6,0.4c-76,0.3-157,0.3-232.8,0c-24.2-0.1-47.8-0.2-70.7-0.3
						c11.1-70.8,10.9-111.9,42.9-137.4c8.7-7,19.9-12.8,34.3-17.7l31.5,0.4l81.2,52.2l106-54.8c15.9,4.8,28.1,10.4,37.7,17.2
						C567.9,384.2,567.1,425.5,578.7,499z"/>
					<g>
						<path class="st38" d="M578.7,499c-24.7,0.2-50.4,0.3-76.6,0.4v-64.6c0-29.3,11.5-56,30.2-75.8
							C567.9,384.2,567.1,425.5,578.7,499z"/>
						<path class="st38" d="M269.4,434.7v64.6c-24.2-0.1-47.8-0.2-70.7-0.3c11.1-70.8,10.9-111.9,42.9-137.4
							C258.9,381.1,269.4,406.7,269.4,434.7z"/>
					</g>
				</g>
				<g>
					<g>
						<g>
							<g>
								<polygon class="st28" points="387.8,364.7 372.5,383.5 334.2,342.5 335.7,324.4 								"/>
								<polygon class="st28" points="442.9,324.6 387.7,364.9 403.6,384.1 451.2,329.7 								"/>
							</g>
							<path class="st34" d="M336.2,330.8l4.3-30.8c0,0-31.3-10.9-51.3,27.5l99.6,72.6l99.5-69.4c0,0-20.7-37.7-51.4-33l5,31.3
								l-53.2,66.8L336.2,330.8z"/>
						</g>
						<path class="st38" d="M389.6,399.8l94.9-75.7c0,0,12-2.8,22.3,4.7c8.2,6,6.6,18.7-2.8,22.7L389.6,399.8z"/>
						<path class="st38" d="M388.6,399.5L292.2,324c0,0-14.9-5.7-25.2,6.7c-4.8,5.8-2.5,14.6,4.4,17.6L388.6,399.5z"/>
					</g>
					<g>
						<path class="st39" d="M405.7,390.6c-4.7,24.8,8,50.5,3.2,75.3"/>
						<path class="st39" d="M369.5,389.1c5.9,8.1,6.7,18.9,5.1,28.8c-1.6,9.9-5.3,19.3-7.7,29.1c-2.4,9.7-3.4,20.3,0.4,29.6"/>
					</g>
				</g>
			</g>
			<g>
				<path class="st40" d="M495.7,135.8c-0.2,26.8-1.4,54.1-11.1,79.1c-9.7,25-29.2,47.6-54.5,55.5c-30.2-3.6-60.4-7.2-89.2-10.7
					c-8.2-3.6-10.1-7.4-27.8-13.7c-24.6-29.9-35-67-33.4-103.3c0.4-8.3,1.3-16.5,2.9-24.6c-8.5-3.2-11.3-9.8-10.9-16.1
					c0.3-6.2,3.3-12,6.9-17.1c10.3-14.4,26.6-24.4,44.2-27.1c-2.3-5.9-0.4-12.1,3.5-15.8c3.8-3.7,9.2-5.4,14.4-6.6
					c29.4-6.9,61.3-1.6,87.5,14.4c10.8,6.6,20.7,15,29.1,25.1c10.8,1.3,21.7,3.3,31.3,8.5c9.6,5.1,17.7,13.8,19.8,24.4
					S505.3,130.8,495.7,135.8z"/>
				<g>
					<g>
						
							<ellipse transform="matrix(0.9518 -0.3067 0.3067 0.9518 -40.5246 160.0209)" class="st16" cx="488.9" cy="209" rx="32.2" ry="25.6"/>
						<path class="st20" d="M489,196.4c10.7-2.5,21,2.3,22.9,10.7c1.9,8.4-5.3,17.1-16,19.6c-10.7,2.5-21-2.3-22.9-10.7
							C471.1,207.7,478.3,198.9,489,196.4z"/>
						<path class="st21" d="M507.1,199.7c-4.8-3.9-11-5.9-17.1-5.6c-6.1,0.3-12.1,2.9-16.5,7.2c0.2,1.6,0.5,3.2,0.7,4.8
							c4.2-4.8,10-8,16.1-8.9C496.5,196.2,502.9,197.5,507.1,199.7z"/>
					</g>
					<g>
						<path class="st16" d="M254.5,199c4.3-13.4,21.6-19.9,38.5-14.4c16.9,5.5,27.2,20.8,22.8,34.2c-4.3,13.4-21.6,19.9-38.5,14.5
							C260.4,227.8,250.2,212.5,254.5,199z"/>
						<path class="st20" d="M262.2,207.1c1.9-8.4,12.2-13.1,22.9-10.7c10.7,2.5,17.9,11.2,16,19.6c-1.9,8.4-12.2,13.1-22.9,10.7
							C267.5,224.2,260.3,215.4,262.2,207.1z"/>
						<path class="st21" d="M267.1,199.7c4.8-3.9,11-5.9,17.1-5.6c6.1,0.3,12.1,2.9,16.5,7.2c-0.2,1.6-0.5,3.2-0.7,4.8
							c-4.2-4.8-10-8-16.1-8.9C277.7,196.2,271.2,197.5,267.1,199.7z"/>
					</g>
				</g>
				<path class="st15" d="M488.2,176.6c0,66.3-45.3,132.9-101.2,132.9c-8.1,0-15.9-1.4-23.5-4c-44.6-15.3-77.7-72.2-77.7-128.9v-0.4
					c0.2-66.1,45.4-106.9,101.2-106.9C442.9,69.3,488.2,110.2,488.2,176.6z"/>
				<g>
					<g>
						<path class="st40" d="M361.8,176.1c-6-6.5-15.8-10.4-26.5-9.6c-10.7,0.7-19.8,5.9-24.8,13.1c0.3-13.1,10.6-24.1,24-25
							C347.9,153.6,359.7,163.1,361.8,176.1z"/>
						<path class="st40" d="M412.3,176.1c6-6.5,15.8-10.4,26.5-9.6c10.7,0.7,19.8,5.9,24.8,13.1c-0.3-13.1-10.6-24.1-24-25
							C426.2,153.6,414.5,163.1,412.3,176.1z"/>
					</g>
					<g>
						<circle class="st13" cx="346" cy="199.4" r="6.3"/>
						<circle class="st13" cx="427.1" cy="199.4" r="6.3"/>
					</g>
					<path class="st26" d="M379.8,273c5.8,1.4,11.8,1.8,17.8,1.3c-1.8,3.2-5.5,5.4-9.2,5.3C384.7,279.5,381.2,277.3,379.8,273z"/>
					<path class="st27" d="M386.6,195.9c-1.8,7.7-1,16,3,23.2c-1,5.1-2,10.3-3,15.4"/>
					<path class="st27" d="M361,248.3c17.6,8.4,39.3,7.4,56-2.7"/>
				</g>
				<path class="st40" d="M409.8,61.6c-33.8-8.1-72.5-2.6-97.4,21.6c-17.7,17.2-26.6,41.9-28.6,66.5s1.7,50.3,9.1,73.2
					c-3.2-18.4-2.8-30,2.5-43.7s12.7-26.7,15.4-41.2c4.9,7.1,16.3,8,26,5.3c9.7-2.8,18.2-8.8,26.4-14.6c-3.5,5-0.6,10.8,3.8,13.4
					s9.8,2.9,14.9,2.6c24.2-1.4,47.6-13.8,63.6-32c1.3,8.3,2.7,17,7.2,24.1c4.6,7.1,13.2,12.3,21.2,11.9c1.5,10.4,5.8,20.1,9,30.2
					s2.4,19.2,1.8,32.1c5.6-16.5,7-33.8,6.5-50.6c-0.5-16.8-4.3-33.8-13-48.3C463.7,87.7,438.6,68.5,409.8,61.6z"/>
				<path class="st41" d="M428.3,49.9c-17.6-5.6-36.4-7.9-54.8-6.5c-6.2,0.4-12.7,1.4-17.6,5.2c-5,3.8-7.7,11.2-4.4,17.1
					c-16.3,1.2-32.3,6.2-46.4,14.5c-6,3.5-11.8,7.9-14.7,14.2c-2.9,6.3-1.7,14.9,5.4,19.7c-7,8.4-12.4,18.3-15.9,28.7
					c0.4-8.3,1.3-16.5,2.9-24.6c-8.5-3.2-11.3-9.8-10.9-16.1c0.3-6.2,3.3-12,6.9-17.1c10.3-14.4,26.6-24.4,44.2-27.1
					c-2.3-5.9-0.4-12.1,3.5-15.8c3.8-3.7,9.2-5.4,14.4-6.6C370.2,28.5,402,33.9,428.3,49.9z"/>
			</g>
		</g>
		<g class="st1">
			<polygon class="st42" points="1348.8,-396.5 1541.5,-378.1 1545.1,-260.3 1543.5,-176.9 1321.9,-178.5 1327.1,-223.8 			"/>
			<g class="st3">
				<g>
					<g>
						<path class="st43" d="M1625.4-42.5c-20.5,0.1-41.5,0.2-62.9,0.3c-87.7,0.4-181.1,0.3-268.2-0.1c-16.6-0.1-32.9-0.2-49-0.2
							c1.7-19,4-35.9,7.1-51.1c1.6-8,3.5-15.5,5.6-22.5c3.8-12.5,8.4-23.6,14.1-33.2c15.9-27.4,40.1-44,76.9-53.6
							c13.3-3.5,28.2-6,45.1-7.9c0.9-5.2,1.9-11.5,2.9-18.1c1.7-10.5,3.4-21.4,4.5-28.7c24.7-1.1,47.6-1.1,72.3,0
							c0.9,5.8,4.9,30.7,6.7,42.1c0.3,2.1,0.6,3.7,0.8,4.7c12.6,1.4,24.1,3.1,34.7,5.4c42.3,9.1,68.2,26.1,84.5,56
							c5.5,10.1,10,21.7,13.5,35c2,7.5,3.8,15.6,5.4,24.2C1621.9-76,1623.9-60.1,1625.4-42.5z"/>
					</g>
					<path class="st44" d="M1480.5-215.6c-42.3,11.4-69.9-2.8-83.5-13.4c1.7-10.5,3.4-21.4,4.5-28.7c24.7-1.1,47.6-1.1,72.3,0
						C1474.8-251.8,1478.7-226.9,1480.5-215.6z"/>
					<g>
						<path class="st44" d="M1619.4-90.2l-73.3,15.3l-3.2-44.8l57.5-29.8c5.5,10.1,10,21.7,13.5,35
							C1616-106.9,1617.8-98.9,1619.4-90.2z"/>
						<path class="st44" d="M1334.9-121.8l-11.1,50l-71.3-21.9c1.6-8,3.5-15.5,5.6-22.5c3.8-12.5,8.4-23.6,14.1-33.2L1334.9-121.8z"
							/>
					</g>
				</g>
				<g>
					<path class="st30" d="M1565.5-89.2c0,0,9,25.9,10.8,46.9c-87.7,0.4-194.9,0.3-282-0.1c1-11.7,6.1-30.5,14.5-49.7l-59-28.2
						c0,0,27.9-74.4,104-86.8c0,0,28.5,84.2,84.9,94.5c0,0,64.7-21.7,72.3-95.9c0,0,83.7,7.6,114.9,89.1L1565.5-89.2z"/>
					<g>
						<path class="st45" d="M1565.6-94.1c-2.7-17.2-7.2-34.1-13.4-50.3C1562.9-130.4,1567.9-112.2,1565.6-94.1z"/>
						<path class="st45" d="M1311.9-95.9c5.7-16.5,12-32.8,19.1-48.9C1319.1-131.5,1312.3-113.8,1311.9-95.9z"/>
					</g>
				</g>
			</g>
			<g class="st3">
				<path class="st43" d="M1527.1-352.7c16.9-5.5,34.2,1,38.5,14.4c4.3,13.4-5.9,28.8-22.8,34.2c-16.9,5.5-34.2-1-38.5-14.4
					C1499.9-332,1510.2-347.3,1527.1-352.7z"/>
				<path class="st46" d="M1535.1-341c10.7-2.5,21,2.3,22.9,10.7c1.9,8.4-5.3,17.1-16,19.6c-10.7,2.5-21-2.3-22.9-10.7
					C1517.2-329.7,1524.4-338.5,1535.1-341z"/>
				<path class="st47" d="M1553.1-337.7c-4.8-3.9-11-5.9-17.1-5.6c-6.1,0.3-12.1,2.9-16.5,7.2c0.2,1.6,0.5,3.2,0.7,4.8
					c4.2-4.8,10-8,16.1-8.9C1542.5-341.2,1548.9-339.9,1553.1-337.7z"/>
			</g>
			<g class="st3">
				<path class="st43" d="M1535-364.9c0,66.3-45.3,132.9-101.2,132.9c-8.1,0-15.9-1.4-23.5-4c-44.6-15.3-77.7-72.2-77.7-128.9v-0.4
					c0.2-66.1,45.4-106.9,101.2-106.9C1489.6-472.2,1535-431.3,1535-364.9z"/>
				<path class="st48" d="M1580.5-150.2c-68.4,8.7-52.2-84.3-46.4-152.1c2.9-0.2,5.8-0.8,8.7-1.8c7.8-2.5,14.2-7.1,18.3-12.7
					c-2,42.1-9,82.7-8.1,107.4C1554.9-158.2,1580.5-150.2,1580.5-150.2z"/>
				<g>
					<g>
						<path class="st48" d="M1413.2-371.6c-6-8.4-15.5-13.1-25-12.3c-9.5,0.8-18.7,7-24.5,16.4
							C1377.3-373.9,1391.9-376.2,1413.2-371.6z"/>
						<path class="st48" d="M1453.9-371.9c6.1-8.3,15.6-12.9,25.1-12c9.5,0.9,18.7,7.2,24.3,16.6
							C1489.9-373.8,1475.2-376.2,1453.9-371.9z"/>
					</g>
					<g>
						<circle class="st13" cx="1394.9" cy="-339.9" r="6.3"/>
						<circle class="st13" cx="1476" cy="-339.9" r="6.3"/>
					</g>
					<g>
						<path class="st49" d="M1425.9-346.2c2.4,7.6,2.3,15.9-1.1,23.4c1.4,5.1,2.9,10.1,4.3,15.1"/>
						<path class="st50" d="M1424.9-271.2c5.8,1.2,11.9,1.4,17.8,0.6c-1.7,3.3-5.3,5.5-9,5.6C1430-264.9,1426.4-267,1424.9-271.2z"
							/>
						<path class="st49" d="M1411.7-290.9c0,0,23.5,12.3,44.2-5.1"/>
					</g>
				</g>
				<g>
					<path class="st48" d="M1561.6-345.5c-6-7-16.6-10.5-27.9-8.8c-22.6-54.9-106.6-94-106.6-94c-18.4,3.5-61.9,31.4-71,79.6
						c-10.7,57-11.2,137.5-19.1,164.8c-7.9,27.3-42.5,27.4-42.5,27.4c6.1-11.2,13.1-24.8,18.6-47.9c5.9-24.4,10.2-59.3,10.2-113.3
						c0-104.9,37.2-128.5,60.8-138.4c23.6-10,43.2-3.8,43.2-3.8c15.1-9.3,41.2-22.5,81.2,12.4c8.2,7.2,16.9,16.3,26.3,27.9
						C1554.6-415.3,1560.9-381,1561.6-345.5z"/>
					<path class="st51" d="M1508.7-467.6c-5.8-3.2-11.9-6-18.3-8.1c-19.8-6.5-43.2-5.3-59.4,9.4c-22.2-8-48,0.8-65,17.2
						c-17,16.4-26.3,39.3-31.7,62.3c5.7-18.9,16.7-36.3,34.5-50.4c-20,20.2-29.3,48.7-33.5,76.9s-3.9,56.8-7.8,84.9
						c-2.4,17.4-6.8,35-14.3,50.8c5.9-24.4,10.2-59.3,10.2-113.3c0-104.9,37.2-128.5,60.8-138.4c23.6-10,43.2-3.8,43.2-3.8
						C1442.5-489.3,1468.7-502.5,1508.7-467.6z"/>
				</g>
			</g>
		</g>
		<g class="st1">
			<g class="st3">
				<path class="st13" d="M798.3,215.4c0,0-0.7,43.8-12.3,82.4c-11.6,38.5-20.7,73.5,0.4,92.9c21.2,19.4,89.8-14.5,89.8-14.5
					l35.1-85.9l-62.2-92.4L798.3,215.4z"/>
				<path class="st13" d="M1051.3,323.1c0,0,18.6,26,10.9,58.6L945.9,348l-60.5-235.2l-11.9-46.2l-2.5-9.8c0,0,1.2-0.9,3.4-2.4
					c15-10.2,76.7-46.4,131.6,2.8c49.6,44.4,50,108.2,42.8,139.3c-4.5,19.4-12.1,41.6-14.9,60.5c-1.7,11.4-1.5,21.5,2.2,29.1
					c9.8,20.3,31.2,34.3,41.5,32.9C1077.5,319,1062.6,329.1,1051.3,323.1z"/>
				<path class="st52" d="M826.3,219.8c0,0,2,45.9-14,78.9s-30.1,67.8-14,93.2c16.1,25.4,215.1-2.6,215.1-2.6l9.2-71.9l-6.1-78.4
					L826.3,219.8z"/>
			</g>
			<g class="st3">
				<g>
					<path class="st53" d="M1111.2,499c-125.4,0.8-255,0.7-380,0c6.5-100.1,33.6-142.3,148.8-168.3c0.6-3.8,1.3-8.3,2.1-13.1
						c1.9-11.8,4-25.2,5.3-33.7c24.7-1.1,47.6-1.1,72.3,0c0.8,5.1,3.2,20.3,5.3,33.1c0.9,5.3,1.6,10.1,2.2,13.7
						C1083.7,358.1,1105,401.5,1111.2,499z"/>
				</g>
				<g>
					<g>
						<path class="st6" d="M1111.2,499c-26.6,0.2-53.3,0.3-80.2,0.4c-73.3,0.2-147.4,0.2-220.5,0c-26.6-0.1-53.1-0.2-79.3-0.4
							c4.8-73.6,14.7-115,65.3-142.1c18.3-9.8,41.8-17.7,72.3-24.6c0,0,0.1,0,0.2,0c0.4-2.4,0.2-9.4,0.2-15.5c0-4.3,4.2-7.2,8.2-5.7
							c28.7,10.8,63.2,9.7,92.9-1.9c3.2-1.2,6.6,1,6.7,4.4c0.2,5.9,0.2,14,0.4,17.4c0,0.4,0.1,0.7,0.1,0.9
							c28.8,6.8,51.2,14.5,68.6,23.7C1099.2,383.4,1106.6,425.5,1111.2,499z"/>
						<path class="st54" d="M810.5,401.9v97.4c-26.6-0.1-53.1-0.2-79.3-0.4c4.8-73.6,14.7-115,65.3-142.1
							C805.3,369.7,810.5,385.2,810.5,401.9z"/>
						<path class="st54" d="M1111.2,499c-26.6,0.2-53.3,0.3-80.2,0.4v-97.5c0-17.4,5.6-33.4,15-46.5
							C1099.2,383.4,1106.6,425.5,1111.2,499z"/>
					</g>
					<g>
						<path class="st55" d="M977.3,330.8l-0.4,0.7c-62.6,33.4-108,0.9-108,0.9l-0.1-0.1c0,0,0.1,0,0.2,0c0.4-2.4,0.2-9.4,0.2-15.5
							c0-4.3,4.2-7.2,8.2-5.7c28.7,10.8,63.2,9.7,92.9-1.9c3.2-1.2,6.6,1,6.7,4.4C977.1,319.3,977.1,327.4,977.3,330.8z"/>
						<g class="st56">
							<path class="st57" d="M922.9,321.9c0,6.6,0,13.2,0,19.8"/>
							<path class="st57" d="M946.8,320.4c0,6.1,0,12.1,0,18.2"/>
							<path class="st57" d="M969.1,315.3c0.2,5.8,0.3,11.6,0.5,17.3"/>
							<path class="st57" d="M876.5,316.4c0,5.7-0.1,11.5-0.2,17.2"/>
							<path class="st57" d="M896.9,320.5c-0.2,5.8-0.4,11.6-0.5,17.4"/>
						</g>
					</g>
				</g>
			</g>
			<g class="st3">
				
					<ellipse transform="matrix(0.3067 -0.9518 0.9518 0.3067 362.5398 923.7944)" class="st15" cx="815.4" cy="213" rx="25.6" ry="32.2"/>
				<path class="st58" d="M792.4,211.2c1.9-8.4,12.2-13.1,22.9-10.7c10.7,2.5,17.9,11.2,16,19.6c-1.9,8.4-12.2,13.1-22.9,10.7
					C797.7,228.3,790.5,219.5,792.4,211.2z"/>
				<path class="st21" d="M797.3,203.8c4.8-3.9,11-5.9,17.1-5.6c6.1,0.3,12.1,2.9,16.5,7.2c-0.2,1.6-0.5,3.2-0.7,4.8
					c-4.2-4.8-10-8-16.1-8.9C807.9,200.4,801.4,201.7,797.3,203.8z"/>
			</g>
			<path class="st22" d="M1020.7,176.6c0,66.3-45.3,132.9-101.2,132.9c-8.1,0-15.9-1.4-23.5-4c-44.6-15.3-77.7-72.2-77.7-128.9v-0.4
				c0.2-66.1,45.4-106.9,101.2-106.9C975.4,69.3,1020.7,110.3,1020.7,176.6z"/>
			<g class="st3">
				<g>
					<path class="st13" d="M899,169.9c-6-8.4-15.5-13.1-25-12.3c-9.5,0.8-18.7,7-24.5,16.4C863,167.6,877.7,165.4,899,169.9z"/>
					<path class="st13" d="M939.7,169.7c6.1-8.3,15.6-12.9,25.1-12s18.7,7.2,24.3,16.6C975.6,167.8,961,165.4,939.7,169.7z"/>
				</g>
				<g>
					<circle class="st13" cx="880.6" cy="201.7" r="6.3"/>
					<circle class="st13" cx="961.8" cy="201.7" r="6.3"/>
				</g>
				<g>
					<path class="st59" d="M927.3,195.4c-2.4,7.6-2.3,15.9,1.1,23.4c-1.4,5.1-2.9,10.1-4.3,15.1"/>
					<path class="st16" d="M928.4,270.4c-5.8,1.2-11.9,1.4-17.8,0.6c1.7,3.3,5.3,5.5,9,5.6S926.9,274.5,928.4,270.4z"/>
					<path class="st59" d="M941.6,250.6c0,0-23.5,12.3-44.2-5.1"/>
				</g>
			</g>
			<g class="st3">
				<path class="st13" d="M893.2,101.4c-1.4,3.9-4.2,7.7-7.8,11.5c-14.8,15.5-43.9,31.1-53.5,53c-9.8,22.5-9.9,44.6-9.9,44.6
					c-4.2-11.8-8.9-23.6-8.9-23.6l-14.5,2.6c-0.9-25.3-2.3-78.7,20.3-110.7c0.2-0.2,0.3-0.4,0.5-0.6c16.4-22.6,39.1-25.3,54.9-23.6
					c10.9,1.1,18.6,4.3,18.6,4.3s0.8,2.4,1.6,6.4C896.3,73.3,898.1,88.1,893.2,101.4z"/>
				<path class="st13" d="M1031.7,335.6c-3.9-21.7-1.8-55.9,1.2-87.7c-1.2-5.6-1.4-11.4-0.6-17c-1-15.3,0.7-31.5,4.3-45.6
					c-4.2-27.9-20.2-76.3-44.3-108.8c-12.4-4.5-25.5-7.1-38.7-9.1c-10.4-1.5-20.9-2.8-31.5-2.6c-8.4,0.2-16.8,1.8-25.2,1.4
					c-4,4.2-8.1,9-12.2,14.5c0,0,6.5,18.6,32.9,18.6s58,3.5,79.8,32.7c29.4,39.3-22.3,181.6-0.2,217.5c22.1,36,59.4,26,59.4,26
					S1037.7,369,1031.7,335.6z"/>
				<path class="st60" d="M1048.8,196.5c-4.5,19.4-12.1,41.6-14.9,60.5c-6.1-25.5,8.4-61.1,9.6-84.6c1.4-27-5.9-78.5-50-106.3
					c-64.1-40.4-110.1,5-110.1,5c-17.4-13-48.2-7.2-63.9,6.9c16.4-22.6,39.1-25.3,54.9-23.6c15-10.2,76.7-46.4,131.6,2.8
					C1055.6,101.6,1056,165.4,1048.8,196.5z"/>
			</g>
		</g>
	</g>
</g>
</svg>
